<svg xmlns="http://www.w3.org/2000/svg" version="1.1" xmlns:xlink="http://www.w3.org/1999/xlink" xmlns:svgjs="http://svgjs.dev/svgjs" viewBox="0 0 800 800" opacity="0.5"><defs><linearGradient x1="50%" y1="0%" x2="50%" y2="100%" id="ccchaos-grad"><stop stop-color="hsl(150, 42%, 62%)" stop-opacity="1" offset="0%"></stop><stop stop-color="hsl(153, 39%, 41%)" stop-opacity="1" offset="100%"></stop></linearGradient></defs><g stroke-width="1" stroke="url(#ccchaos-grad)" fill="none" stroke-linecap="round"><path d="M394.32 18.49C400.96 19.8 407.46 20.53 413.82 20.64 420.18 19.97 426.38 18.78 432.44 17.21 438.48 15.25 444.37 13.26 450.1 11.45 458.6 9.32 474.78 9.32 482.48 11.94 487.56 14.68 492.49 18.18 497.29 22.31 502.1 26.81 506.79 31.62 511.37 36.58 515.99 41.4 520.53 46.03 524.99 50.34 531.79 55.74 545.46 63.04 552.48 65.07 559.82 66.12 575.44 67.75 583.85 69.12 589.79 70.45 595.95 72.34 602.36 74.84 609.05 77.86 616 81.57 623.21 85.94 630.7 90.85 638.43 96.36 646.39 102.37 654.56 108.76 662.92 115.51 671.41 122.5 680.01 129.61 688.66 136.79 697.29 143.96 705.87 150.98 714.31 157.85 722.54 164.51 730.51 170.86 738.12 176.92 745.27 182.69 751.97 188.09 758.08 193.19 763.51 198.02 770.33 204.63 778.79 216.55 780.28 222.1 779.85 227.39 774.15 238.2 769.31 243.9 763.66 249.78 751.47 262.63 745.77 269.63 741.29 276.95 736.65 292.7 737.08 301.08 738.74 306.77 741.35 312.6 744.88 318.57 749.42 324.57 754.79 330.68 760.86 336.88 767.64 343.1 774.85 349.4 782.32 355.77 789.99 362.14 797.54 368.57 804.76 375.05 811.59 381.53 817.62 387.98 822.71 394.41 826.92 400.84 829.94 407.27 831.7 413.68 832.34 420.12 831.67 426.57 829.7 433.05 826.65 439.58 822.42 446.17 817.13 452.85 811.01 459.61 804.08 466.49 796.5 473.51 788.51 480.66 780.17 487.99 771.65 495.53 763.19 503.22 754.84 511.14 746.74 519.3 739.09 527.62 731.93 536.19 725.32 544.98 719.42 553.9 714.21 563 709.69 572.25 705.98 581.51 702.97 590.82 700.63 600.1 699.05 609.2 698.04 618.12 697.53 626.74 697.61 634.94 698.03 642.66 698.7 649.77 702.25 670.79 691.02 665.26 684.9 666.26 680.3 668.65 675.25 672.39 669.78 677.59 664.02 684.32 657.89 692.44 651.46 701.83 644.8 712.27 637.88 723.45 630.76 735.02 623.49 746.58 616.06 757.69 608.52 767.89 600.89 776.82 593.2 784.06 585.46 789.29 577.69 792.41 569.91 793.22 562.15 791.73 554.39 788.32 546.66 783.07 538.99 776.39 531.34 769.05 523.75 761.39 516.24 754.04 508.76 747.84 501.35 743.13 494.02 740.39 486.72 740.14 479.5 742.39 472.35 747.16 465.24 754.37 458.19 763.55 451.22 774.15 444.27 785.58 437.39 797.03 430.57 807.68 423.77 816.88 417.02 823.88 410.33 828.1 403.65 829.39 397.02 827.46 390.44 822.43 383.86 814.86 377.41 805.23 371.08 794.33 364.75 783.06 358.53 772.16 352.44 762.42 346.33 754.58 340.34 749.04 334.47 746.1 328.58 746 322.8 748.46 317.13 753.18 311.44 759.88 305.86 767.78 300.38 776.19 294.88 784.67 289.48 792.31 284.17 798.51 276.2 804.11 260.64 799.72 253.02 789.88 247.9 780.82 242.85 770.36 237.85 759 232.79 747.27 227.77 735.66 222.79 724.64 217.72 714.63 212.69 705.94 207.68 698.79 200.04 691.54 184.69 687.67 176.97 689.98 171.74 692.79 166.51 695.99 161.3 699.24 153.38 703.86 137.61 708.45 129.8 707.38 124.6 705.16 119.46 701.67 114.43 696.96 109.4 691.19 104.48 684.38 99.7 676.67 94.96 668.21 90.37 659.13 85.95 649.62 81.6 639.76 77.43 629.74 73.46 619.71 69.57 609.71 65.89 599.9 62.42 590.37 59.04 581.11 55.87 572.24 52.9 563.78 50.02 555.71 47.34 548.06 44.85 540.83 42.42 533.99 40.16 527.5 38.08 521.34 35.08 512.7 29.8 496.77 27.48 489.21 25.24 481.9 21.24 467.18 19.48 459.61 17.76 451.94 14.82 435.74 13.62 427.15 12.83 421.36 12.18 415.36 11.67 409.15 11.13 402.93 10.74 396.51 10.5 389.88 10.25 383.25 10.17 376.5 10.25 369.65 10.33 362.8 10.58 355.86 11 348.84 11.44 341.84 12.06 334.78 12.85 327.67 13.68 320.6 14.7 313.51 15.91 306.42 17.16 299.39 18.62 292.38 20.27 285.44 21.97 278.59 23.89 271.83 25.99 265.19 28.16 258.69 30.52 252.35 33.07 246.21 35.67 240.23 38.45 234.5 41.39 229.02 45.9 221.26 55.61 207.54 60.73 201.62 65.88 196.24 76.39 186.93 81.7 182.78 86.91 178.62 97.34 169.91 102.56 165 107.67 159.26 118.03 145.47 123.32 137.33 126.83 131.37 130.44 125.12 134.14 118.63 137.83 111.92 141.64 105.15 145.58 98.41 149.53 91.76 153.63 85.35 157.87 79.32 162.16 73.69 166.6 68.62 171.19 64.2 178.26 58.82 193.3 52.45 201.25 51.2 209.47 50.76 226.69 50.49 235.66 49.78 241.75 48.65 247.93 47.04 254.21 44.88 260.55 42.04 266.97 38.69 273.45 34.9 279.98 30.67 286.57 26.26 293.2 21.85 299.87 17.5 306.58 13.52 313.31 10.08 320.07 7.2 326.84 5.14 333.61 3.96 340.41 3.54 347.2 4 353.97 5.25 360.76 7 367.52 9.23 374.25 11.77 380.98 14.2 387.67 16.5 394.31 18.48" stroke-dasharray="9 12" transform="rotate(0, 400, 400)" opacity="1.00"></path><path d="M386.54 33.95C392.8 35.3 398.95 36.07 404.97 36.24 411 35.64 416.9 34.53 422.67 33.01 431.25 30.06 447.79 24.71 455.75 23.38 463.59 23.63 478.76 29.33 486.12 34.59 491.04 38.79 495.89 43.41 500.68 48.31 505.53 53.21 510.36 58.07 515.18 62.73 520.08 66.98 525.01 70.82 529.98 74.2 537.67 78.08 553.75 82.72 562.25 83.9 568.17 84.36 574.26 84.84 580.55 85.48 587.05 86.21 593.76 87.32 600.68 88.88 607.82 90.84 615.16 93.38 622.69 96.54 630.4 100.21 638.28 104.51 646.28 109.39 654.39 114.74 662.57 120.58 670.78 126.84 678.98 133.39 687.1 140.2 695.1 147.2 702.93 154.27 710.52 161.37 717.8 168.43 724.74 175.36 731.25 182.15 737.24 188.75 742.74 195.08 747.63 201.18 751.84 207.04 756.87 215.22 762.14 230.01 762.33 236.74 760.91 242.98 754.16 254.89 749.27 260.76 743.92 266.53 733.06 278.54 728.29 284.89 724.81 291.38 722.08 305.26 723.29 312.67 725.34 317.68 728.23 322.87 731.95 328.23 736.55 333.6 741.87 339.13 747.79 344.82 754.32 350.52 761.21 356.37 768.31 362.36 775.56 368.36 782.68 374.5 789.49 380.78 795.94 387.07 801.67 393.43 806.53 399.87 810.62 406.31 813.63 412.84 815.5 419.45 816.36 426.09 816.03 432.84 814.51 439.7 811.98 446.6 808.36 453.64 803.74 460.82 798.32 468.06 792.09 475.46 785.19 483.03 777.85 490.67 770.1 498.48 762.09 506.47 754.02 514.52 745.96 522.73 738.03 531.08 730.4 539.46 723.12 547.93 716.27 556.47 709.99 564.94 704.26 573.39 699.13 581.76 694.7 589.93 690.89 597.9 687.7 605.58 685.21 612.91 683.27 619.8 681.85 626.18 683.29 647.41 676.05 648.73 671.52 653.68 668.05 658.7 664.13 664.97 659.81 672.48 655.2 681.14 650.21 690.78 644.88 701.17 639.32 712.03 633.47 723.06 627.35 733.88 621.05 744.15 614.55 753.49 607.86 761.54 601.06 768.05 594.12 772.74 587.08 775.41 579.96 776.14 572.78 774.83 565.55 771.6 558.29 766.92 551.01 760.93 543.73 754.06 536.45 747.05 529.18 740.19 521.95 734.02 514.73 729.26 507.54 726.14 500.41 725.01 493.3 726.24 486.24 729.75 479.25 735.47 472.27 743.26 465.36 752.64 458.51 763.07 451.67 774.03 444.9 784.78 438.19 794.6 431.5 802.96 424.86 809.19 418.29 812.83 411.72 813.78 405.21 811.79 398.75 806.97 392.3 799.83 385.98 790.79 379.78 780.52 373.58 769.83 367.49 759.36 361.53 749.81 355.56 741.86 349.7 735.89 343.95 732.21 338.19 731.09 332.53 732.36 326.97 735.81 321.39 741.27 315.91 748.08 310.52 755.69 305.1 763.74 299.77 771.39 294.52 778.1 286.63 785.4 271.12 786.77 263.47 780.32 258.33 773.42 253.24 764.85 248.19 755 243.07 744.32 237.98 733.2 232.92 722.09 227.77 711.4 222.65 701.49 217.55 692.64 212.36 685.11 207.18 679.01 202.01 674.4 194.14 670.54 178.36 670.94 170.47 673.95 162.52 678.02 146.79 685.04 139.06 686.72 131.41 686.42 116.68 679.19 109.66 672.29 105.09 666.52 100.68 659.89 96.45 652.55 92.3 644.61 88.34 636.16 84.57 627.35 80.9 618.24 77.44 608.97 74.18 599.66 71.01 590.3 68.06 581.06 65.3 572 62.63 563.09 60.16 554.44 57.87 546.07 55.64 537.95 53.58 530.14 51.69 522.63 49.83 515.37 48.11 508.4 46.54 501.68 44.96 495.18 43.5 488.89 42.16 482.76 40.78 476.81 39.51 470.97 38.34 465.22 36.55 456.77 33.35 440.03 31.93 431.6 30.96 425.99 30.09 420.3 29.33 414.51 28.51 408.73 27.81 402.84 27.23 396.83 26.61 390.81 26.13 384.68 25.78 378.41 25.41 372.15 25.2 365.84 25.14 359.5 25.09 353.16 25.21 346.79 25.5 340.42 25.82 334.07 26.32 327.72 27 321.41 27.73 315.13 28.66 308.9 29.78 302.75 30.97 296.66 32.36 290.67 33.95 284.81 36.55 276.22 42.86 260.09 46.56 252.63 50.52 245.6 59.31 232.98 64.09 227.38 68.98 222.16 79.22 212.75 84.49 208.4 89.72 203.97 100.23 194.73 105.49 189.62 110.61 183.79 120.83 170.15 125.94 162.24 129.27 156.47 132.65 150.42 136.08 144.12 139.45 137.58 142.89 130.91 146.4 124.2 149.88 117.48 153.46 110.89 157.13 104.54 160.8 98.47 164.58 92.82 168.49 87.69 174.44 81.06 187.09 71.94 193.79 69.45 200.72 68.14 215.37 67.56 223.08 67.53 231.01 66.85 247.55 62.78 256.12 59.02 261.93 55.71 267.82 51.96 273.79 47.87 279.8 43.45 285.88 38.97 292.02 34.6 298.19 30.39 304.41 26.63 310.66 23.48 316.94 20.93 323.25 19.2 329.58 18.34 335.92 18.21 342.27 18.92 348.61 20.36 354.97 22.25 361.31 24.58 367.63 27.17 373.96 29.63 380.26 31.95 386.53 33.94" stroke-dasharray="11 12" transform="rotate(4.04, 400, 400)" opacity="0.96"></path><path d="M380.54 49.41C389.38 51.19 406.61 50.81 415 48.85 423.3 45.94 439.45 40.28 447.33 38.54 455.15 38.19 470.52 42.43 478.12 46.97 483.22 50.77 488.3 55.08 493.37 59.79 498.52 64.63 503.68 69.57 508.88 74.46 519.58 83.28 530.56 90.63 541.95 96.14 553.95 99.35 566.53 101.25 579.74 102.57 593.62 103.53 608.13 105.59 623.15 109.37 638.53 114.79 654.09 122.54 669.47 132.42 684.44 143.89 698.55 156.76 711.31 170.45 722.59 184.39 731.77 198.22 738.44 211.59 742.92 224.16 744.62 235.93 743.55 246.95 740.7 256.99 735.79 266.48 729.39 275.66 724.49 282.17 715.13 295.05 711.3 301.56 708.79 308.05 707.83 321.55 709.72 328.64 712.11 333.38 715.24 338.29 719.09 343.38 723.72 348.44 728.95 353.68 734.71 359.1 740.98 364.52 747.54 370.11 754.26 375.89 761.1 381.66 767.81 387.63 774.22 393.78 780.3 399.94 785.72 406.22 790.37 412.62 794.32 419.03 797.3 425.58 799.26 432.25 800.31 438.93 800.28 445.75 799.16 452.71 797.13 459.68 794.08 466.79 790.08 474.04 785.32 481.3 779.78 488.69 773.57 496.19 766.89 503.7 759.76 511.3 752.3 518.97 744.7 526.6 737.01 534.27 729.34 541.93 721.87 549.49 714.6 556.97 707.65 564.33 695.12 578.45 684.52 591.53 676.03 603.02 665.66 622.66 664.79 625.98 664.16 625.46 662.84 628.76 660.04 635.58 655.67 646.63 650.34 661.99 643.42 680.74 635.08 701.38 625.86 721.75 615.45 739.51 604.1 752.22 592.18 758.62 579.6 757.73 566.58 750.11 559.97 744.7 553.3 738.48 546.58 731.88 539.82 725.57 533.04 719.79 526.24 714.99 519.43 711.75 512.63 710.2 505.84 710.58 499.05 713.14 492.29 717.73 485.56 724.21 478.84 732.39 472.16 741.81 465.52 751.96 458.89 762.37 452.3 772.37 445.77 781.37 439.25 788.9 432.77 794.41 426.34 797.52 419.92 798.15 413.55 796.12 407.23 791.51 400.91 784.79 394.71 776.32 388.63 766.67 382.54 756.57 376.57 746.55 370.7 737.24 364.83 729.25 359.05 722.96 353.38 718.65 347.7 716.63 342.1 716.79 336.6 719.02 331.08 723.23 325.63 728.89 320.27 735.55 314.88 742.94 309.56 750.31 304.3 757.17 296.39 765.62 280.77 771.84 273.03 768.62 262.57 757.56 252.22 740.41 241.97 719.93 231.44 699.01 220.96 680.25 210.54 665.55 199.86 656.1 189.26 651.7 178.79 651.37 168.19 654.49 157.82 658.66 147.77 662.2 137.8 664.67 128.3 664.14 119.38 660.19 110.75 653.26 102.83 643 95.68 630.08 88.94 615.17 82.99 598.86 77.86 581.94 73.04 564.63 68.94 547.63 65.52 531.29 63.85 523.28 62.31 515.49 60.91 507.91 59.5 500.47 58.2 493.25 57 486.22 55.77 479.33 54.63 472.61 53.57 466.05 52.46 459.59 51.42 453.25 50.47 447.02 49.44 440.86 48.48 434.77 47.61 428.73 46.66 422.74 45.79 416.77 45.01 410.82 44.17 404.88 43.42 398.94 42.77 393 42.08 387.05 41.5 381.09 41.05 375.11 40.58 369.13 40.25 363.2 40.07 357.33 39.89 348.55 40.44 331.39 41.2 323.05 42.24 314.86 45.43 299.2 47.6 291.79 50.1 284.64 56.25 271.39 59.87 265.31 62.41 261.38 65.13 257.64 68.01 254.1 73.88 247.04 80.3 240.57 87.16 234.5 93.9 227.95 100.92 221.27 108.12 214.16 114.98 205.84 121.93 196.59 128.94 186.24 135.55 174.56 142.24 161.98 149.05 148.86 155.55 135.54 162.29 122.79 169.29 111.32 176.18 101.47 183.46 93.9 191.18 88.9 198.95 85.8 207.23 84.62 216.01 84.65 224.95 84.29 234.4 83.23 244.31 80.67 249.33 78.46 254.47 75.76 259.7 72.57 264.98 68.84 270.35 64.76 275.81 60.45 281.3 55.94 286.87 51.47 292.51 47.23 298.17 43.24 303.9 39.76 309.68 36.94 315.48 34.74 321.32 33.36 327.19 32.83 333.07 33 338.98 33.93 344.91 35.56 350.84 37.57 356.78 39.98 362.72 42.6 368.67 45.07 374.6 47.4 380.53 49.4" stroke-dasharray="3 2" transform="rotate(8.08, 400, 400)" opacity="0.92"></path><path d="M377.11 64.87C385.53 66.7 402.08 66.53 410.22 64.71 421.05 60.73 431.69 56.72 442.16 53.93 452.71 52.81 463.18 54.66 473.64 59.53 484.3 66.65 495.09 75.69 506.08 85.6 517.44 95 529.16 103.4 541.3 110.24 553.93 114.86 567.06 117.89 580.68 119.85 594.73 120.79 609.15 122.06 623.78 124.36 638.44 127.68 652.93 132.98 666.89 140.31 680.16 149.32 692.29 160.12 702.86 172.27 711.91 185.29 718.86 198.86 723.41 212.55 726.05 226.05 726.26 239.15 724.14 251.71 720.73 263.56 715.75 274.83 709.77 285.62 704.18 295.74 698.94 305.62 694.8 315.43 692.99 324.82 693.4 334.4 696.37 344.3 702.46 354.01 711.02 364.21 721.6 374.98 727.6 380.34 733.84 385.86 740.18 391.55 746.62 397.23 752.92 403.09 758.94 409.12 764.67 415.16 769.79 421.31 774.21 427.57 778.02 433.83 780.96 440.2 782.98 446.67 784.58 459.63 782.22 472.97 776.15 486.58 767.27 500.1 755.69 513.71 742.24 527.17 728 540.21 713.44 552.69 699.33 564.24 686.5 574.82 675.14 583.92 665.54 591.19 650.54 601.37 644.59 604.7 643.87 610.07 643.03 617.97 641.08 629.36 637.91 644.27 634.05 662.06 628.81 681.52 622.25 700.93 614.95 718.35 606.45 731.85 596.94 739.69 586.86 741.58 575.99 737.21 564.51 727.75 552.72 716.36 540.53 705.1 528.08 697.08 515.51 695.45 502.82 700.9 490.11 713.31 477.39 731.08 464.7 750.66 452.12 767.99 445.83 774.73 439.57 779.55 433.34 782.16 427.11 782.51 420.91 780.45 414.75 776.04 408.59 769.74 402.52 761.82 396.56 752.78 390.59 743.26 384.72 733.72 378.94 724.69 367.36 710.32 356.11 702.71 345.18 702.83 334.15 710.47 323.38 722.64 312.84 735.97 302.15 747.89 291.62 754.69 281.23 754.7 270.63 747.99 260.12 734.83 249.69 717.18 239.03 697.41 228.44 677.84 217.92 660.56 207.23 647.08 196.67 638.01 186.29 633.13 175.88 632.32 165.76 633.92 156.02 636.53 146.45 639.73 137.4 641.52 128.97 641.08 120.87 638.65 113.49 633.25 106.89 625.1 100.69 614.8 95.27 602.41 90.63 588.56 86.29 573.64 82.62 558.15 79.59 542.57 76.6 526.86 74.1 511.53 72.01 496.75 69.73 482.2 67.74 468.25 66.03 454.91 63.99 441.76 62.19 429.09 60.67 416.84 59.8 410.74 59 404.72 58.29 398.79 57.2 389.93 55.53 372.6 55.02 364.26 54.74 358.75 54.61 353.37 54.66 348.14 54.86 337.68 55.84 327.82 57.61 318.61 59.69 309.44 62.63 300.94 66.4 293.12 70.51 285.28 75.4 278.01 81 271.21 86.78 264.1 93.13 257.15 99.93 250.12 106.66 242.28 113.68 233.94 120.9 224.86 127.82 214.61 134.83 203.46 141.89 191.46 148.56 178.67 155.28 165.56 162.07 152.61 168.51 140.19 175.1 128.99 181.89 119.58 188.47 112 195.37 106.72 202.6 103.72 209.8 102.08 217.42 101.7 225.47 101.81 233.6 100.93 242.19 98.89 251.22 95.15 260.36 89.04 269.93 81.34 279.86 72.7 289.9 63.74 300.27 55.98 310.9 50.5 321.6 47.53 332.51 47.75 343.57 50.84 349.11 52.96 354.67 55.42 360.27 58.06 365.86 60.54 371.47 62.86 377.1 64.86" stroke-dasharray="17 12" transform="rotate(12.12, 400, 400)" opacity="0.89"></path><path d="M376.71 80.33C387.47 82.5 398.15 82.53 408.74 80.59 419.35 76.77 429.93 72.71 440.48 69.55 451.12 67.75 461.82 68.61 472.63 72.38 483.64 78.45 494.87 86.72 506.36 96.3 518.16 105.94 530.32 115.11 542.84 123.12 555.71 129.19 568.94 133.63 582.47 136.7 596.19 138.28 610.02 139.52 623.77 141.07 637.28 142.95 650.31 146.23 662.54 151.19 673.9 157.58 683.95 165.82 692.35 175.69 699.28 186.77 704.19 198.93 706.93 211.78 708.07 225.02 707.14 238.36 704.34 251.56 700.67 264.49 695.9 277.03 690.53 289.16 685.84 300.82 681.73 312.11 678.81 323.15 678.15 333.81 679.54 344.4 683.23 355.03 689.67 365.46 698.22 376.11 708.47 387.07 720.19 397.96 732.23 409.26 743.67 421.01 754.05 432.76 761.9 444.7 766.67 456.77 768.62 468.8 766.99 480.87 761.96 492.82 754.32 504.57 744.05 515.97 731.86 526.77 718.68 537.05 704.9 546.38 691.19 554.48 678.33 561.73 666.53 567.48 656.11 571.63 644.02 576.01 629.93 579.75 626.67 582.29 625.75 586.29 624.94 592.4 623.9 601.24 623.03 613.21 621.44 627.99 618.94 645.08 616.06 663.43 612.05 681.76 606.9 698.39 601.17 711.87 594.33 720.73 586.48 723.98 578.13 722.1 568.92 715.29 559 705.06 548.74 694.55 537.95 685.49 526.75 680.39 515.4 681.6 503.77 689.23 491.97 702.69 480.12 720.27 468.18 738.71 456.21 754.45 444.24 764.74 432.26 767.02 420.32 760.58 408.37 747.39 396.72 729.98 385.37 712.16 373.98 697.75 362.85 689.07 351.96 687.25 340.99 692.51 330.21 702.57 319.6 714.74 308.86 726.88 298.24 735.48 287.72 738.63 277.05 735.98 266.45 727.01 255.92 712.94 245.24 695.57 234.64 676.72 224.16 658.43 213.6 642.28 203.22 629.39 193.08 620.16 183 614.89 173.27 612.7 163.97 612.63 154.92 614.41 146.42 616.28 138.56 617.29 131.08 617.57 124.31 615.75 118.3 611.67 112.68 605.85 107.81 597.8 103.68 587.9 99.81 576.66 96.56 564.19 93.9 550.95 91.25 537.13 89.02 523.08 87.17 509.11 85.08 495.05 83.24 481.3 81.63 468 79.65 454.75 77.87 441.98 76.3 429.71 74.41 417.48 72.82 405.71 71.6 394.42 70.26 383.12 69.48 372.53 69.32 362.61 69.3 352.67 70.05 343.37 71.59 334.71 73.46 325.96 76.18 317.76 79.74 310.03 83.66 302.05 88.37 294.36 93.79 286.78 99.44 278.65 105.67 270.33 112.37 261.62 119.06 252.04 126.06 241.82 133.29 230.88 140.26 219.08 147.35 206.7 154.49 193.94 161.26 181.04 168.07 168.45 174.92 156.68 181.39 146 187.97 136.95 194.67 129.93 201.11 124.66 207.77 121.43 214.7 119.99 221.5 119.26 228.64 119.1 236.15 118.78 243.64 117.01 251.54 113.8 259.84 108.84 268.19 101.77 276.94 93.46 286.06 84.68 295.24 76.03 304.77 68.9 314.6 64.2 324.47 61.98 334.62 62.78 344.99 66.21 355.36 70.76 365.95 75.87 376.7 80.32" stroke-dasharray="3 9" transform="rotate(16.16, 400, 400)" opacity="0.85"></path><path d="M379.4 95.79C389.73 98.02 400.11 98.21 410.52 96.49 420.95 92.87 431.47 88.83 442.06 85.4 452.75 83 463.6 82.95 474.63 85.59 485.82 90.5 497.27 97.78 508.98 106.72 520.91 116.24 533.14 125.82 545.64 134.74 558.32 142.13 571.2 148.05 584.17 152.52 597.11 155.28 609.92 157.19 622.38 158.78 634.41 160.03 645.74 162.02 656.07 165.14 665.44 169.22 673.43 174.92 679.78 182.21 684.79 190.75 687.95 200.68 689.19 211.68 689.18 223.47 687.49 235.86 684.33 248.55 680.71 261.42 676.36 274.26 671.77 286.9 668.06 299.39 665.08 311.59 663.33 323.51 663.72 335.19 665.97 346.67 670.26 357.97 676.96 369.14 685.44 380.26 695.32 391.4 706.42 402.49 717.71 413.67 728.39 424.95 738.14 436.23 745.61 447.34 750.33 458.21 752.57 469.02 751.6 479.48 747.52 489.46 741.04 499.21 732.05 508.28 721.12 516.47 709.09 524.23 696.22 530.92 683.11 536.42 670.47 541.44 658.51 545.29 647.57 548.09 638.09 550.83 629.95 553.05 623.14 555.17 617.93 558.34 613.81 562.4 610.54 567.98 608.38 575.84 606.58 585.95 604.85 598.47 603.54 613.22 601.83 629.69 599.55 647.06 597.14 664.16 593.88 679.83 589.7 692.63 585.14 701.71 579.6 706.08 573.14 705.37 566.27 700.7 558.54 692.54 550.06 682.56 541.28 673.63 531.86 667.12 521.94 664.95 511.84 668.74 501.35 678.15 490.55 692.29 479.68 709.41 468.58 726.58 457.33 740.76 446.06 749.71 434.67 751.34 423.19 745.12 411.72 732.83 400.42 716.58 389.32 699.63 378.2 685.34 367.24 675.81 356.44 672.27 345.59 675.25 334.86 683.1 324.24 693.72 313.54 705.43 302.92 715.04 292.38 720.6 281.74 721.48 271.17 716.59 260.69 706.48 250.13 692.4 239.69 675.61 229.4 657.85 219.13 640.63 209.09 625.25 199.34 612.55 189.74 603.1 180.53 596.73 171.81 592.97 163.38 591.74 155.52 591.75 148.33 592.14 138.45 592.89 122.84 586.54 117.05 578.19 113.63 570.83 110.79 561.96 108.46 551.91 106.11 541.07 104.12 529.5 102.46 517.5 100.53 505.17 98.8 492.74 97.25 480.41 95.31 468 93.52 455.84 91.9 444.02 89.95 432.21 88.24 420.76 86.88 409.73 85.38 398.7 84.41 388.31 84.04 378.52 83.82 368.67 84.34 359.36 85.63 350.5 87.26 341.48 89.74 332.78 93.05 324.29 96.74 315.45 101.22 306.6 106.42 297.59 111.88 288 117.94 278.04 124.5 267.59 131.1 256.46 138.05 244.82 145.24 232.7 152.26 220.22 159.4 207.62 166.63 195.21 173.52 183.26 180.45 172.18 187.4 162.4 193.99 153.99 200.64 147.38 207.37 142.72 213.8 139.47 220.38 137.81 227.15 137.32 233.73 136.88 240.58 136.38 247.72 135.19 254.78 132.27 262.18 127.8 269.94 121.69 277.67 113.84 285.78 105.16 294.26 96.47 302.73 88.32 311.57 81.93 320.74 78.06 329.92 76.59 339.41 77.94 349.2 81.66 358.98 86.31 369.05 91.38 379.39 95.79" stroke-dasharray="6 3" transform="rotate(20.200000000000003, 400, 400)" opacity="0.81"></path><path d="M384.81 111.25C394.79 113.52 404.89 113.87 415.11 112.4 425.35 109.02 435.75 105.07 446.3 101.47 456.93 98.58 467.76 97.69 478.79 99.23 489.95 102.93 501.33 109.05 512.94 117.08 524.67 126.1 536.59 135.7 548.65 145.14 560.74 153.57 572.86 160.86 584.85 166.83 596.66 171.07 608.12 174.18 619.02 176.53 629.38 178 638.87 179.56 647.26 181.65 654.7 184.1 660.77 187.73 665.28 192.67 668.64 198.62 670.38 205.96 670.49 214.54 669.69 224.06 667.57 234.51 664.36 245.64 661.03 257.28 657.3 269.26 653.58 281.36 650.89 293.61 649.02 305.79 648.37 317.8 649.69 329.78 652.69 341.55 657.47 353.07 664.32 364.55 672.66 375.82 682.13 386.88 692.6 397.92 703.16 408.79 713.12 419.45 722.24 430.11 729.33 440.28 733.96 449.92 736.44 459.5 736.04 468.45 732.83 476.7 727.44 484.78 719.67 492.03 709.99 498.39 699.15 504.54 687.29 509.77 674.95 514.12 662.77 518.44 650.92 522.13 639.76 525.43 629.7 529.29 620.71 533.37 612.83 538.1 606.35 544.28 600.89 551.83 596.32 561.09 592.86 572.33 589.92 585.41 587.26 600.12 585.19 615.93 583.01 632.23 580.52 648.08 578.14 662.48 575.17 674.44 571.52 682.94 567.69 687.7 563.05 688.15 557.61 684.44 551.89 678.07 545.38 669.63 538.13 660.75 530.63 653.94 522.47 650.17 513.74 650.79 504.85 656.81 495.47 667.58 485.68 682.02 475.82 698.45 465.62 714.27 455.15 726.91 444.65 734.61 433.93 735.66 423 729.66 412.07 718.23 401.22 703.12 390.45 687.08 379.68 673.05 368.99 662.9 358.38 657.88 347.75 658.75 337.18 664.35 326.69 673.15 316.15 683.88 305.66 693.76 295.25 700.92 284.8 704.62 274.42 703.39 264.16 697.25 253.9 686.98 243.79 673.23 233.88 657.35 224.06 640.65 214.52 624.38 205.32 609.55 196.33 596.9 187.78 586.79 179.74 579.18 172.02 574.19 164.89 571.07 158.41 569.19 149.57 568.36 135.81 564.99 130.77 560.33 127.78 556.05 125.29 550.35 123.27 543.39 121.17 535.72 119.38 527.02 117.86 517.55 116.05 507.65 114.39 497.25 112.87 486.57 110.95 475.72 109.13 464.77 107.46 453.85 105.45 442.9 103.65 432.05 102.15 421.36 100.52 410.68 99.39 400.38 98.82 390.46 98.4 380.49 98.7 370.79 99.75 361.3 101.13 351.65 103.34 342.06 106.37 332.43 109.79 322.49 113.99 312.34 118.92 301.91 124.14 291.05 129.97 279.82 136.33 268.21 142.78 256.29 149.62 244.14 156.73 231.92 163.74 219.86 170.91 208.16 178.19 197.16 185.19 187.05 192.25 178.17 199.33 170.82 206.07 164.83 212.85 160.53 219.68 157.87 226.2 156.11 232.82 155.36 239.57 155.15 246.09 154.38 252.82 153.06 259.77 150.69 266.57 146.49 273.67 140.79 281.06 133.71 288.38 125.31 296.04 116.53 304.03 108.16 311.99 100.67 320.3 95.13 328.95 92.11 337.59 91.38 346.57 93.23 355.88 97.2 365.18 101.9 374.82 106.91 384.8 111.25" stroke-dasharray="7 16" transform="rotate(24.24, 400, 400)" opacity="0.77"></path><path d="M392.23 126.71C401.89 129.02 411.71 129.53 421.68 128.31 431.69 125.2 441.88 121.42 452.24 117.75 462.66 114.47 473.27 112.86 484.06 113.38 494.92 115.85 505.95 120.7 517.11 127.6 528.31 135.79 539.58 144.99 550.83 154.53 562 163.59 573.01 171.95 583.74 179.27 594.15 185.08 604.05 189.7 613.26 193.32 621.87 195.73 629.53 197.72 636.07 199.67 643.92 202.59 651.44 213.33 651.12 221.96 649.86 228.92 647.62 236.94 644.63 245.84 641.78 255.4 638.8 265.58 636.04 276.18 634.36 287.14 633.55 298.3 633.9 309.49 636.04 320.83 639.67 332.08 644.82 343.14 651.74 354.26 659.88 365.14 668.9 375.74 678.75 386.35 688.59 396.65 697.85 406.59 706.36 416.52 713.06 425.83 717.58 434.46 720.24 443.06 720.33 450.96 717.9 458.13 713.51 465.24 706.9 471.63 698.45 477.32 688.8 483.03 678.03 488.18 666.6 492.91 655.07 497.97 643.58 502.97 632.47 508.18 622.15 514.27 612.6 521.07 603.94 528.92 596.43 538.17 589.84 548.79 584.07 560.86 579.36 574.22 575.24 588.67 571.54 603.77 568.52 618.84 565.59 633.28 562.59 646.21 558.34 660.89 547.67 668.81 540.82 661.93 535.87 654.96 530.24 647.19 523.95 640.09 517.47 635.73 510.36 634.69 502.67 637.84 494.84 645.7 486.48 657.41 477.66 671.8 468.76 687.33 459.45 701.75 449.78 712.89 440.08 719.43 430.06 719.96 419.76 714.2 409.46 703.61 399.13 689.61 388.81 674.52 378.49 660.87 368.17 650.31 357.89 644.06 347.61 643.01 337.34 646.43 327.12 653.22 316.9 662.53 306.72 672.02 296.61 679.98 286.52 685.69 276.53 687.48 266.68 684.99 256.89 678.64 247.29 668.5 237.93 655.51 228.72 640.71 219.83 625.1 211.33 609.71 203.06 595.32 195.26 582.55 188 571.73 181.05 563.11 174.68 556.45 168.95 551.42 161.17 546.85 149.2 541.08 144.86 537.6 141.16 533.02 135.59 518.06 133.35 507.79 131.62 500.29 130 492.04 128.48 483.2 126.56 474.18 124.72 464.73 122.99 454.97 120.91 445.16 119.03 435.12 117.42 424.92 115.68 414.71 114.4 404.58 113.67 394.53 113.06 384.44 113.14 374.35 113.95 364.24 115.08 354.01 117.01 343.64 119.73 333.09 122.84 322.35 126.72 311.35 131.33 300.1 136.25 288.68 141.8 277.05 147.89 265.31 154.14 253.64 160.79 242.1 167.76 230.93 174.7 220.29 181.83 210.43 189.11 201.61 196.19 193.84 203.34 187.42 210.52 182.51 217.43 178.69 224.36 176.22 231.33 174.93 238 173.95 244.74 173.4 251.56 172.81 258.15 171.21 264.88 168.71 271.77 164.99 278.49 159.52 285.44 152.75 292.64 144.95 299.73 136.28 307.1 127.67 314.78 119.84 322.39 113.17 330.34 108.54 338.61 106.39 346.85 106.36 355.43 108.66 364.37 112.83 373.28 117.54 382.57 122.46 392.22 126.71" stroke-dasharray="2 10" transform="rotate(28.28, 400, 400)" opacity="0.73"></path><path d="M400.68 142.17C410.01 144.5 419.52 145.17 429.18 144.2 438.86 141.42 448.71 137.86 458.71 134.21 468.75 130.68 478.93 128.47 489.23 128.06 499.55 129.35 509.95 132.89 520.37 138.5 530.76 145.58 541.08 154 551.24 163.19 561.24 172.41 570.94 181.4 580.2 189.75 589.09 196.96 597.37 203.12 604.87 208.25 614.76 213.62 628.23 220.8 631.46 224.29 632.49 228.49 628.93 241.9 625.33 251.33 623.12 258.49 620.98 266.42 619.19 274.96 618.5 283.94 618.67 293.33 619.91 302.98 622.76 312.88 626.89 322.89 632.3 332.87 639.2 342.96 647.08 352.94 655.64 362.7 664.86 372.5 674 382.04 682.57 391.23 690.49 400.43 696.8 409.05 701.18 417.08 703.96 425.1 704.48 432.54 702.74 439.44 699.26 446.38 693.74 452.87 686.46 458.99 678.01 465.32 668.38 471.49 657.95 477.7 647.23 484.42 636.32 491.51 625.51 499.17 615.21 507.73 605.41 517.19 596.26 527.66 588.02 539.16 580.53 551.67 573.77 565.03 567.94 578.86 562.71 592.91 557.96 606.64 553.91 619.46 550.1 630.83 546.38 640.04 541.32 648.78 530.25 647.26 523.75 638.69 519.22 632.12 514.14 625.79 508.49 620.94 502.75 619.16 496.43 620.71 489.56 626.04 482.59 635.3 475.11 647.54 467.13 661.57 459.1 676.04 450.62 689.01 441.74 698.72 432.82 704.18 423.54 704.24 413.91 698.74 404.28 688.96 394.55 676.04 384.77 661.92 375.01 648.78 365.19 638 355.37 630.78 345.57 628.05 335.76 629.39 325.99 634.1 316.24 641.68 306.54 650.2 296.93 658.22 287.38 665.1 277.95 669.13 268.68 669.71 259.53 666.99 250.6 660.61 241.95 651.08 233.49 639.2 225.37 625.58 217.67 611.15 210.22 596.61 203.24 582.68 196.8 569.87 190.65 558.51 185.07 548.76 180.09 540.57 173.33 531.37 163.03 519.33 159.31 514.62 156.07 510.15 151.03 498.18 148.9 490.17 147.21 484.38 145.61 477.8 144.07 470.51 142.13 463.09 140.26 455.04 138.47 446.43 136.35 437.77 134.4 428.63 132.7 419.05 130.86 409.46 129.46 399.68 128.57 389.72 127.8 379.76 127.68 369.6 128.24 359.26 129.11 348.87 130.75 338.27 133.15 327.47 135.93 316.64 139.46 305.64 143.71 294.53 148.28 283.52 153.49 272.55 159.25 261.78 165.21 251.38 171.61 241.45 178.36 232.22 185.14 223.72 192.17 216.2 199.38 209.85 206.45 204.45 213.64 200.3 220.89 197.4 227.91 195.17 234.98 193.83 242.07 193.12 248.92 192.18 255.8 191.15 262.75 189.63 269.47 186.84 276.28 182.99 283.22 177.92 289.98 171.33 296.91 163.75 304.03 155.53 311.03 146.9 318.27 138.72 325.76 131.63 333.17 125.88 340.88 122.21 348.89 120.91 356.85 121.53 365.14 124.24 373.76 128.54 382.37 133.23 391.34 138.02 400.67 142.17" stroke-dasharray="14 6" transform="rotate(32.32, 400, 400)" opacity="0.70"></path><path d="M409.04 157.63C418.03 159.97 427.16 160.79 436.41 160.09 445.67 157.64 455.05 154.36 464.53 150.82 474.01 147.17 483.58 144.5 493.16 143.31 502.73 143.52 512.28 145.77 521.73 150.01 531.09 155.78 540.27 163.09 549.18 171.5 557.86 180.38 566.13 189.49 573.88 198.4 581.25 206.61 587.95 214.08 593.85 220.67 606.24 233.61 613.03 246.36 611.61 250.78 609.46 256.03 604.54 270.71 603.07 280.1 603.31 286.93 604.36 294.32 606.38 302.14 609.81 310.2 614.32 318.56 619.88 327.1 626.69 335.77 634.27 344.51 642.34 353.23 650.93 361.98 659.39 370.66 667.3 379.19 674.64 387.71 680.55 395.88 684.77 403.69 687.63 411.51 688.49 419.03 687.36 426.3 684.7 433.67 680.18 440.92 674.02 448.14 666.74 455.66 658.26 463.36 648.9 471.4 639.11 479.95 628.94 489.05 618.67 498.82 608.65 509.26 598.89 520.43 589.55 532.32 580.87 544.67 572.77 557.47 565.27 570.41 558.55 583.06 552.37 595.16 546.67 606.2 541.63 615.8 536.91 623.5 532.38 628.84 526.27 632.23 514.04 624.26 507.45 615.63 500.59 608.12 484.66 606.24 475.49 615.25 469.17 625.47 462.36 637.84 455.1 651.24 447.8 664.52 440.05 676.04 431.89 684.38 423.71 688.86 415.14 688.52 406.21 683.28 397.28 674.28 388.21 662.41 379.06 649.28 369.93 636.74 360.73 625.95 351.5 618 342.31 613.84 333.1 613.29 323.93 615.95 314.82 621.6 305.76 628.73 296.8 636.16 287.94 643.39 279.22 648.8 270.7 651.67 262.33 652.01 254.19 649.13 246.37 643.18 238.75 634.75 231.49 624.06 224.65 611.81 218.06 598.62 211.94 585.09 206.32 571.8 200.98 559.09 196.16 547.37 191.9 536.79 187.86 527.46 184.35 519.32 181.36 512.22 177.3 503.57 171.23 489.69 168.94 483.19 166.57 476.73 162 461.33 159.62 452.08 157.66 445.65 155.75 438.58 153.91 430.89 151.75 423.17 149.75 414.86 147.97 405.97 146.06 397.09 144.56 387.88 143.54 378.38 142.62 368.9 142.31 359.16 142.64 349.2 143.26 339.28 144.6 329.18 146.67 318.98 149.1 308.9 152.26 298.81 156.1 288.84 160.28 279.15 165.1 269.74 170.47 260.81 176.07 252.39 182.14 244.65 188.59 237.77 195.13 231.6 201.95 226.42 208.99 222.32 215.98 218.89 223.11 216.41 230.34 214.79 237.42 213.35 244.55 212.32 251.73 211.41 258.71 209.85 265.73 207.8 272.79 205 279.66 200.86 286.59 195.66 293.62 189.41 300.47 181.97 307.45 173.91 314.58 165.61 321.58 157.34 328.77 149.83 336.17 143.64 343.48 138.89 351.04 136.19 358.86 135.7 366.63 136.91 374.68 139.94 383.04 144.33 391.37 148.95 400.04 153.6 409.03 157.63" stroke-dasharray="16 9" transform="rotate(36.36, 400, 400)" opacity="0.66"></path><path d="M416.2 173.09C424.8 175.43 433.49 176.39 442.22 175.95 450.97 173.85 459.76 170.9 468.57 167.57 477.36 163.91 486.15 160.94 494.86 159.12 503.53 158.39 512.07 159.43 520.42 162.3 528.64 166.65 536.59 172.63 544.16 179.91 551.51 187.98 558.37 196.67 564.67 205.6 570.61 214.28 575.88 222.59 580.39 230.33 586.1 240.22 592.68 254.99 593.6 260.46 592 269.24 587.83 284.86 587.71 291.95 588.79 297.05 590.61 302.71 593.28 308.89 597.16 315.22 601.94 321.98 607.56 329.1 614.2 336.3 621.42 343.78 629 351.46 636.97 359.17 644.76 367.03 652.02 375 658.8 382.98 664.31 390.88 668.35 398.71 671.24 406.57 672.38 414.42 671.78 422.31 669.84 430.32 666.24 438.49 661.12 446.89 654.96 455.54 647.63 464.57 639.36 474.02 630.59 483.83 621.31 494.15 611.74 504.98 602.23 516.1 592.77 527.62 583.53 539.37 574.73 551.05 566.31 562.56 558.35 573.59 550.99 583.81 544.09 592.94 537.61 600.58 528.94 608.7 513.63 611.99 506.54 607.55 499.81 600.89 485.79 589.06 478.18 588.16 473.03 591.19 467.52 596.95 461.63 605.32 455.73 616.06 449.42 628.21 442.71 640.76 435.98 652.75 428.85 662.84 421.35 669.89 413.82 673.47 405.93 672.79 397.69 667.82 389.45 659.57 381.08 648.72 372.62 636.59 364.18 624.73 355.68 614.1 347.15 605.67 338.66 600.36 330.17 598.15 321.74 598.87 313.37 602.52 305.07 607.95 296.91 614.26 288.85 621.12 280.96 627.07 273.3 631.37 265.78 633.99 258.53 634.01 251.61 631.36 244.87 626.44 238.51 619.11 232.56 609.83 226.83 599.11 221.54 587.33 216.74 575.03 212.16 562.54 208.05 550.3 204.45 538.61 201.01 527.59 198.02 517.41 195.49 508.12 193.03 499.71 190.94 492.09 189.2 485.11 187.38 478.82 185.81 472.9 184.46 467.17 182.17 459.15 177.57 442.58 175.13 433.52 173.14 427.37 171.19 420.74 169.3 413.61 167.12 406.47 165.08 398.81 163.25 390.64 161.28 382.47 159.71 374.01 158.57 365.31 157.52 356.64 157.04 347.77 157.16 338.79 157.53 329.9 158.58 320.97 160.31 312.11 162.38 303.44 165.14 294.95 168.56 286.79 172.32 278.97 176.69 271.62 181.62 264.89 186.8 258.65 192.46 253.15 198.53 248.48 204.73 244.33 211.26 241.02 218.04 238.52 224.83 236.3 231.8 234.67 238.91 233.45 245.93 231.98 253.04 230.49 260.22 228.72 267.25 226.05 274.34 222.69 281.47 218.46 288.44 213.02 295.47 206.67 302.56 199.53 309.51 191.6 316.56 183.43 323.71 175.41 330.75 167.77 337.93 161.14 345.26 155.97 352.52 152.27 359.97 150.51 367.63 150.78 375.24 152.5 383.09 155.79 391.18 160.21 399.25 164.72 407.58 169.2 416.19 173.09" stroke-dasharray="3 11" transform="rotate(40.400000000000006, 400, 400)" opacity="0.62"></path><path d="M421.22 188.55C429.38 190.87 437.54 191.96 445.68 191.77 453.82 190.05 461.93 187.46 469.96 184.41 477.97 180.87 485.88 177.75 493.64 175.47 501.32 173.98 508.8 173.96 516 175.54 523.06 178.45 529.78 182.96 536.07 188.87 542.15 195.75 547.73 203.55 552.73 211.92 557.44 220.47 561.51 229.04 564.89 237.39 567.96 245.22 570.31 252.53 571.96 259.25 573.71 267.85 574.08 281.48 573.19 287.13 572.43 292.12 571.99 302.65 573.11 308.69 574.92 312.84 577.39 317.46 580.58 322.54 584.79 327.68 589.72 333.27 595.31 339.3 601.72 345.37 608.55 351.84 615.61 358.68 622.96 365.53 630.1 372.73 636.75 380.26 642.98 387.8 648.09 395.51 651.93 403.38 654.8 411.29 656.16 419.41 656 427.76 654.7 436.2 651.92 444.95 647.76 454.01 642.66 463.23 636.43 472.8 629.27 482.72 621.56 492.77 613.25 503.11 604.53 513.65 595.72 524.11 586.79 534.56 577.9 544.76 569.25 554.48 560.82 563.58 552.69 571.75 544.99 578.91 537.63 584.73 530.63 588.97 524.09 591.84 517.86 592.99 511.9 592.4 506.34 590.75 500.94 587.8 495.65 583.92 488.14 578.26 473.15 572.14 465.39 574.72 460.22 579.68 454.81 586.89 449.11 596.08 443.44 606.92 437.46 618.54 431.16 630.05 424.86 640.7 418.23 649.39 411.28 655.24 404.32 658.01 397.05 657.05 389.48 652.36 381.91 644.83 374.23 634.97 366.49 623.84 358.77 612.73 351.01 602.41 343.25 593.74 335.52 587.56 327.83 583.95 320.21 582.92 312.66 584.61 305.21 588.2 297.92 593.03 290.73 598.92 283.73 604.64 276.97 609.52 270.36 613.51 264.02 615.63 258 615.66 252.16 613.85 246.68 609.82 241.59 603.79 236.68 596.16 232.19 587.06 228.13 576.9 224.23 566 220.77 554.7 217.73 543.35 214.8 532.06 212.26 521.13 210.1 510.72 207.95 500.8 206.1 491.49 204.54 482.79 202.86 474.64 201.38 466.98 200.07 459.72 198.51 452.86 197.05 446.21 195.66 439.67 193.93 433.34 192.24 426.97 190.57 420.46 188.55 414.04 186.57 407.39 184.65 400.48 182.45 393.57 180.39 386.36 178.52 378.84 176.53 371.32 174.9 363.68 173.67 355.97 172.51 348.29 171.88 340.59 171.8 332.94 171.94 325.39 172.71 317.99 174.11 310.82 175.82 303.84 178.18 297.21 181.16 291.03 184.46 285.13 188.35 279.79 192.79 275.07 197.5 270.68 202.69 266.96 208.3 263.9 214.07 261.07 220.2 258.8 226.61 257.02 233.09 255.15 239.79 253.48 246.66 251.84 253.5 249.64 260.47 247.11 267.53 244.08 274.51 240.07 281.55 235.33 288.65 229.79 295.65 223.27 302.69 216.11 309.79 208.49 316.78 200.48 323.84 192.58 330.98 185.17 338.02 178.4 345.17 172.81 352.43 168.73 359.63 166.07 366.96 165.21 374.44 166.14 381.89 168.3 389.5 171.76 397.29 176.15 405.07 180.52 413.04 184.82 421.2 188.55" stroke-dasharray="2 3" transform="rotate(44.44, 400, 400)" opacity="0.58"></path><path d="M423.42 204.01C431.08 206.3 438.66 207.5 446.14 207.56 453.61 206.21 460.97 204.02 468.19 201.3 475.37 197.99 482.37 194.87 489.14 192.32 495.84 190.26 502.27 189.37 508.37 189.81 514.34 191.37 519.93 194.4 525.08 198.81 530.04 204.25 534.52 210.77 538.46 218.11 542.17 225.94 545.32 234.13 547.88 242.46 550.23 250.65 552 258.62 553.21 266.26 554.3 273.36 554.9 280 555.09 286.2 555.31 294.36 555.24 308.37 555.57 314.72 557.02 320.63 563.17 333.12 568.24 340.02 572.65 344.67 577.63 349.72 583.1 355.19 589.22 360.63 595.63 366.49 602.16 372.79 608.91 379.08 615.42 385.81 621.47 392.98 627.17 400.15 631.89 407.62 635.51 415.35 638.32 423.11 639.85 431.16 640.05 439.49 639.29 447.86 637.23 456.52 633.95 465.42 629.82 474.35 624.63 483.49 618.55 492.75 611.92 501.93 604.64 511.12 596.87 520.15 588.9 528.86 580.68 537.19 572.35 544.92 564.12 551.99 555.95 558.18 547.92 563.27 540.18 567.41 532.65 570.25 525.38 571.7 518.47 572.2 511.8 571.41 505.36 569.46 499.27 567.1 493.34 564.13 487.57 560.91 479.33 557.37 463.27 557.54 455.23 563.17 449.93 569.62 444.49 577.78 438.87 587.32 433.3 597.89 427.51 608.72 421.51 619.06 415.51 628.35 409.27 635.7 402.8 640.44 396.32 642.49 389.6 641.3 382.65 636.9 375.71 630.06 368.7 621.15 361.68 611.01 354.67 600.71 347.67 590.85 340.69 582.15 333.76 575.38 326.88 570.66 320.11 568.12 313.4 567.99 306.82 569.71 300.42 572.85 294.11 577.35 288.01 582.22 282.16 586.9 273.7 593.04 258.5 596.57 251.88 592.94 247.71 588.48 243.92 582.44 240.52 575.07 237.22 566.7 234.28 557.47 231.72 547.69 229.2 537.53 227.01 527.22 225.13 517 223.2 506.85 221.52 497 220.07 487.53 218.47 478.34 217.02 469.57 215.69 461.2 214.12 453.12 212.62 445.37 211.17 437.89 209.4 430.61 207.66 423.5 205.93 416.49 203.89 409.58 201.89 402.7 199.94 395.81 197.75 388.94 195.68 382.02 193.8 375.04 191.79 368.07 190.13 361.2 188.83 354.47 187.59 347.76 186.83 341.23 186.57 334.93 186.75 325.74 190.42 309.26 193.93 302.21 198.47 295.9 210.6 286.01 218.02 282.3 223.29 279.91 228.93 277.79 234.88 275.82 240.94 273.5 247.24 271.07 253.75 268.4 260.28 265.04 266.98 261.19 273.79 256.77 280.57 251.47 287.45 245.54 294.39 239.01 301.28 231.81 308.23 224.27 315.22 216.62 322.15 208.94 329.13 201.68 336.17 195.15 343.14 189.43 350.19 184.97 357.3 182 364.37 180.34 371.53 180.29 378.78 181.8 386 184.3 393.34 187.87 400.78 192.17 408.21 196.37 415.76 200.44 423.41 204.01" stroke-dasharray="16 7" transform="rotate(48.48, 400, 400)" opacity="0.54"></path><path d="M422.53 219.47C429.62 221.72 436.58 223.01 443.36 223.3 450.14 222.31 456.74 220.54 463.13 218.21 469.49 215.21 475.6 212.24 481.45 209.6 489.96 206.41 505.14 206.35 511.65 210.09 515.72 213.97 519.33 218.98 522.47 224.95 525.46 231.58 527.97 238.83 530 246.5 531.93 254.36 533.4 262.31 534.46 270.2 535.5 277.88 536.21 285.31 536.64 292.44 537.21 299.16 537.64 305.54 538 311.61 539.11 319.95 542.95 335.2 546.11 342.48 549.02 347.11 552.38 351.87 556.21 356.82 560.72 361.64 565.65 366.72 570.93 372.09 576.71 377.41 582.67 383.08 588.67 389.11 594.82 395.13 600.72 401.53 606.2 408.35 611.38 415.16 615.71 422.24 619.09 429.55 621.82 436.86 623.44 444.4 623.93 452.12 623.63 459.83 622.2 467.68 619.69 475.61 616.44 483.46 612.23 491.3 607.18 499.01 601.6 506.51 595.36 513.73 588.6 520.54 581.56 526.94 574.19 532.72 566.6 537.74 558.99 542.14 551.31 545.62 543.65 548.06 536.13 549.81 528.73 550.52 521.47 550.2 514.45 549.41 507.6 547.84 500.94 545.69 494.53 543.68 488.28 541.61 482.17 539.8 476.29 538.98 470.5 539.03 464.78 540.25 459.22 543.11 453.68 547.46 448.13 553.32 442.67 560.75 437.16 569.38 431.57 578.84 426.02 588.81 420.36 598.64 414.57 607.72 408.8 615.66 402.88 621.75 396.81 625.49 390.74 626.91 384.51 625.55 378.13 621.44 371.75 615.27 365.38 607.26 359.04 598.11 352.71 588.66 346.43 579.36 340.22 570.84 334.05 563.74 327.97 558.21 322.03 554.45 313.27 552.72 296.76 558.74 289.13 564.37 281.9 570.37 269.02 577.52 263.44 577.32 258.31 574.02 249.77 559.2 246.31 548.53 244.11 540.49 242.16 531.94 240.47 523.08 238.69 513.97 237.1 504.8 235.69 495.71 234.11 486.64 232.65 477.76 231.28 469.15 229.67 460.66 228.11 452.45 226.59 444.53 224.78 436.73 222.98 429.18 221.21 421.88 219.15 414.64 217.13 407.6 215.18 400.74 213.01 393.9 210.95 387.21 209.07 380.68 207.08 374.14 205.4 367.9 204.06 361.98 202.32 353.26 201.35 337.57 202.26 330.71 204.06 324.3 210.76 313.56 215.59 309.14 221.27 304.89 235.08 296.96 243.01 292.76 248.55 289.45 254.35 285.85 260.38 281.88 266.48 277.24 272.76 272.12 279.19 266.48 285.64 260.2 292.2 253.47 298.84 246.41 305.48 239.02 312.18 231.59 318.94 224.35 325.67 217.38 332.45 211.04 339.26 205.6 346.05 201.05 352.88 197.75 359.75 195.86 366.59 195.12 373.49 195.77 380.42 197.75 387.35 200.49 394.33 204.09 401.34 208.26 408.36 212.24 415.43 216.09 422.52 219.47" stroke-dasharray="13 18" transform="rotate(52.52, 400, 400)" opacity="0.51"></path><path d="M418.65 234.93C425.14 237.12 431.44 238.48 437.54 238.99 443.62 238.35 449.48 236.99 455.09 235.09 463.33 231.13 478.29 223.67 484.92 221.52 493.31 221.13 500.21 225.12 505.5 233.17 510.51 244.07 514.03 257.54 516.23 272.28 518.71 287.27 520.51 301.98 522.11 315.9 525.09 328.75 528.8 340.79 533.63 352.29 536.89 357.74 540.5 363.17 544.46 368.63 548.95 373.97 553.74 379.4 558.76 384.97 564.16 390.48 569.65 396.18 575.12 402.1 580.68 408 586 414.15 590.93 420.55 595.6 426.96 599.54 433.47 602.68 440.07 605.29 446.67 606.96 453.32 607.68 459.97 607.74 466.58 606.84 473.14 605 479.56 602.54 485.86 599.22 491.93 595.13 497.68 585.53 508.43 573.65 517.15 560.36 523.07 546.63 527.26 532.45 528.35 518.39 526.64 504.85 524.81 491.71 522.49 479.11 521.57 467.16 524.91 455.53 532.53 444.15 544.88 438.6 552.79 433.04 561.41 427.48 570.41 421.97 579.53 416.41 588.22 410.81 596 405.23 602.64 399.58 607.56 393.87 610.4 388.15 611.27 382.36 609.78 376.5 605.98 370.63 600.44 364.84 593.31 359.13 585.11 353.42 576.54 347.81 567.92 342.33 559.74 336.85 552.56 331.52 546.53 326.34 541.85 321.19 538.83 316.22 537.25 311.46 536.97 302.07 540.54 293.58 546.44 286.19 552.1 279 557.13 272.91 558.29 267.98 555.06 263.06 548.59 259.09 538.22 255.99 525.19 252.46 510.49 249.42 494.78 246.78 479.04 245.11 471.1 243.48 463.28 241.89 455.65 240.03 448.05 238.19 440.65 236.39 433.49 234.33 426.36 232.31 419.46 230.37 412.81 228.23 406.17 226.21 399.77 224.35 393.61 221.55 384.57 217.53 368.39 216.51 361.22 216.12 354.4 217.95 342.44 220.23 337.2 224.3 330.09 230.27 323.69 237.88 317.47 246.27 309.84 256.04 301.38 266.83 291.59 278.01 279.72 289.94 266.49 302.32 252.54 314.8 238.5 327.59 226.03 340.52 216.77 346.97 213.42 353.46 211.26 359.97 210.36 366.47 210.42 372.99 211.66 379.52 213.99 386.04 216.87 392.58 220.43 399.1 224.4 405.63 228.15 412.15 231.74 418.64 234.93" stroke-dasharray="14 6" transform="rotate(56.56, 400, 400)" opacity="0.47"></path><path d="M412.31 250.39C424.03 253.63 434.88 254.01 444.73 251.9 454.49 247.06 463.13 242.22 470.54 238.82 477.77 236.84 483.72 238.33 488.36 243.38 492.95 251.06 496.44 261.63 499.02 274.1 502.07 287.61 504.77 301.69 507.49 315.65 511.5 329.28 516.18 342.38 521.76 354.9 529.13 366.9 537.51 378.61 546.59 390.18 556.77 401.57 566.74 413.16 575.65 424.98 583.75 436.8 589.06 448.28 591.29 459.15 591.46 469.79 588.37 479.38 582.38 487.43 574.68 494.7 564.79 499.89 553.39 502.7 541.36 504.73 528.59 504.79 515.6 503.54 502.81 503.39 490.14 504.03 477.82 506.8 465.93 513.54 454.32 523.84 443.02 537.5 432.01 553.68 421.09 570.06 410.28 583.87 399.55 593.35 388.76 595.89 377.97 590.52 367.18 579.51 356.87 564.48 347.16 548.78 337.47 535.68 328.44 526.42 320.22 521.66 312.08 521.94 304.82 525.06 298.54 529.17 289.68 535.59 276.43 531.94 271.57 520.69 268.06 510.53 264.94 498.6 262.12 485.81 258.45 472.44 254.87 458.99 251.45 445.98 247.16 432.93 243.13 420.51 239.62 408.96 235.76 397.42 233.06 387.22 231.7 378.27 230.73 369.15 231.45 361.01 233.85 353.56 237.02 345.51 241.91 337.56 248.32 329.27 255.45 319.68 263.9 309.15 273.38 297.55 283.31 284.71 294.03 271.3 305.26 258.14 316.68 245.8 328.47 235.63 340.4 228.87 352.39 225.31 364.49 225.95 376.52 230.5 388.59 236.53 400.57 243.74 412.3 250.39" stroke-dasharray="10 8" transform="rotate(60.599999999999994, 400, 400)" opacity="0.43"></path><path d="M404.33 265.85C414.8 269.05 424.39 269.9 433.03 268.58 441.6 264.7 449.17 260.42 455.66 256.88 464.78 253.71 478.22 264.19 483.24 277.39 486.94 288.3 490.5 300.41 494.19 313.03 499.01 325.93 504.39 338.76 510.44 351.2 517.85 363.5 525.93 375.4 534.4 386.85 543.61 398.22 552.5 409.29 560.38 419.96 567.6 430.62 572.48 440.34 574.79 448.94 575.5 457.36 573.47 464.4 568.95 469.82 562.98 474.86 554.99 478.18 545.49 479.88 535.28 481.64 524.16 482.53 512.59 483.27 500.95 485.73 489.21 489.6 477.61 495.7 466.23 504.98 455.04 516.87 444.14 530.74 433.43 545.75 422.91 559.98 412.61 571.28 402.39 578.65 392.28 580.12 382.37 575.06 372.45 565.4 363.15 552.18 354.53 537.9 345.9 525.16 337.98 514.97 330.85 508.16 320.58 505.6 304.1 512.47 297.81 515.15 293.64 515.54 290.07 513.35 287.04 508.71 283.49 502.76 280.24 494.81 277.24 485.47 273.49 475.45 269.85 464.71 266.4 453.73 262.21 442.62 258.3 431.6 254.89 420.92 251.18 410.24 248.52 400.37 247.02 391.23 245.82 381.92 246.09 373.03 247.82 364.33 250.17 355.05 254.04 345.49 259.28 335.42 265.15 324.45 272.25 312.76 280.35 300.52 288.89 287.9 298.24 275.46 308.14 264.03 318.28 253.98 328.82 246.38 339.55 242.06 350.39 240.45 361.33 242.32 372.18 247.26 383.09 253.1 393.87 259.74 404.33 265.85" stroke-dasharray="16 1" transform="rotate(64.64, 400, 400)" opacity="0.39"></path><path d="M395.78 281.31C405.01 284.44 413.46 285.67 421.08 285.11 428.66 282.23 435.41 278.74 441.3 275.47 449.75 271.32 463.36 275.08 469.16 283.65 473.46 291.42 477.75 300.7 482.2 310.92 487.55 321.77 493.34 333 499.57 344.19 506.8 355.53 514.42 366.62 522.15 377.22 530.39 387.84 538.22 397.96 545.1 407.39 551.47 416.81 555.89 425.04 558.2 432.01 558.71 441.69 547.29 454.54 536.51 458.4 528.15 461.31 518.8 464.17 508.84 467.58 498.67 472.76 488.2 479.45 477.69 487.99 467.24 498.71 456.85 511.04 446.67 524.19 436.61 537.46 426.72 549.32 417.1 558.23 407.53 563.72 398.17 564.31 389.09 559.6 380.02 551.23 371.62 539.76 363.92 527.04 356.2 515.06 349.18 504.57 342.89 496.42 333.75 490.15 318.86 490.17 312.94 491.95 307.14 492.83 296.93 485.02 292.09 476.36 288.3 469.55 284.65 461.61 281.21 452.89 277.17 444.01 273.43 434.64 270.17 424.97 266.65 415.3 264.06 405.8 262.5 396.46 261.13 387 261.03 377.47 262.18 367.79 263.8 357.73 266.74 347.26 270.88 336.37 275.54 325.09 281.32 313.49 288.03 301.91 295.14 290.62 303.04 280.1 311.5 271.07 320.21 263.6 329.35 258.56 338.71 256.43 348.21 256.43 357.84 259.18 367.41 264.25 377.04 269.74 386.56 275.76 395.78 281.31" stroke-dasharray="3 10" transform="rotate(68.68, 400, 400)" opacity="0.35"></path><path d="M387.79 296.77C395.83 299.77 403.26 301.32 410.03 301.43 416.79 299.54 422.91 296.98 428.4 294.32 436.45 290.08 450.47 289.25 456.97 293.84 461.71 298.55 466.51 304.77 471.42 312.12 477.04 320.17 482.94 328.93 489.08 337.99 495.92 347.35 502.92 356.73 509.85 365.84 517.1 375.04 523.89 383.83 529.83 392.01 535.37 400.2 539.31 407.35 541.53 413.46 542.62 422.18 534.65 435.73 526.34 441.66 519.75 446.34 512.18 451.44 503.93 457.33 495.4 464.65 486.44 473.19 477.29 482.98 468.09 494 458.83 505.72 449.66 517.4 440.54 528.54 431.53 538 422.76 544.69 414.02 548.55 405.49 548.45 397.26 544.14 389.03 536.98 381.46 527.2 374.55 516.12 367.6 505.22 361.3 495.01 355.65 486.24 347.36 477.29 333.53 470.33 327.78 469.77 322.04 469.95 311.59 465.36 306.62 459.69 302.85 455.2 299.25 449.49 295.88 442.73 292.04 435.86 288.51 428.1 285.44 419.57 282.15 411.05 279.69 402.18 278.11 393.06 276.66 383.9 276.27 374.38 276.93 364.57 277.94 354.63 280.06 344.37 283.21 333.93 286.76 323.55 291.3 313.26 296.68 303.46 302.39 294.34 308.83 286.33 315.83 279.97 323.06 275.07 330.73 272.33 338.66 272.02 346.72 273.21 354.96 276.48 363.21 281.42 371.5 286.44 379.75 291.8 387.79 296.77" stroke-dasharray="6 17" transform="rotate(72.72, 400, 400)" opacity="0.32"></path><path d="M381.41 312.23C388.34 315.05 394.84 316.82 400.87 317.51 409.72 315.76 425.45 309.53 432.55 307.28 439.74 306.44 454.15 312.23 461.75 318.67 467.33 323.88 473.06 329.93 478.87 336.55 485.14 343.47 491.41 350.69 497.48 357.98 503.73 365.35 509.52 372.64 514.56 379.67 519.3 386.69 522.74 393.11 524.81 398.93 526.25 407.53 521.08 423.44 514.93 431.71 509.96 437.96 504.08 444.78 497.52 452.29 490.67 460.71 483.33 469.91 475.69 479.71 467.95 489.97 460.03 500.27 452.1 509.96 444.16 518.81 436.24 525.95 428.48 530.68 420.74 533.17 413.14 532.55 405.79 528.68 398.44 522.66 391.66 514.49 385.46 505.08 379.22 495.52 373.52 486.07 368.36 477.35 363.12 469.99 358.37 463.84 354.09 458.89 347.66 454.18 336.31 448.83 331.19 446.32 325.78 443.55 315.37 433.49 310.41 425.92 306.83 420.49 303.55 414.1 300.72 406.78 297.7 399.45 295.41 391.58 293.87 383.31 292.4 375.04 291.81 366.39 292.1 357.5 292.61 348.69 294.04 339.74 296.34 330.91 298.93 322.4 302.35 314.3 306.51 306.97 310.91 300.42 315.99 295.07 321.58 291.27 327.36 288.63 333.58 287.77 340.1 288.77 346.73 290.72 353.57 294.15 360.51 298.75 367.48 303.19 374.49 307.85 381.41 312.23" stroke-dasharray="4 6" transform="rotate(76.76, 400, 400)" opacity="0.28"></path><path d="M377.5 327.69C386.19 331.22 402.3 332.82 409.74 331.56 419.72 327.6 429.17 325.33 438.19 326.14 448.28 327.93 458.62 333.63 468.85 342.32 474.39 346.95 479.83 352.1 485.01 357.61 490.27 363.19 495.1 369.01 499.29 375 503.26 380.97 506.19 386.82 508.05 392.53 509.5 398.31 509.8 404.07 509.02 409.87 506.07 422.2 499.14 435.91 489.4 451.26 478.71 468.2 466.2 485.95 453.08 501.53 446.46 508.09 439.79 513.13 433.16 516.18 426.53 517.57 419.97 516.62 413.56 513.22 407.14 508.27 401.16 501.62 395.63 493.87 390.08 485.8 384.94 477.5 380.22 469.42 370.57 455.65 362.27 444.73 355.31 436.45 347.55 431.24 340.57 425.99 334.52 419.21 329.42 414.05 320.04 400.23 315.99 391.42 313.29 385.28 311.21 378.69 309.77 371.8 308.35 364.94 307.65 357.86 307.66 350.72 308.12 336.94 311.6 323.98 317.64 313.91 324.35 306.43 333.27 303.68 343.59 306.55 348.85 308.83 354.38 312.13 360.07 316.19 365.78 319.98 371.62 323.92 377.5 327.69" stroke-dasharray="10 17" transform="rotate(80.80000000000001, 400, 400)" opacity="0.24"></path><path d="M376.56 343.15C386.33 346.82 395.77 348.77 404.63 349.33 413.73 347.28 422.66 345.93 431.3 346.34 440.6 346.66 449.97 349.74 458.92 355.46 468.45 361.48 477.17 369.73 484.01 379.77 490.28 389.82 493.16 400.78 492.77 412.45 491.2 424.61 486.51 438.1 479.47 452.3 471.72 466.71 462.22 480.64 451.87 491.81 441.36 499.9 430.36 502.35 419.52 497.76 408.68 488.99 398.97 476.11 390.52 462.07 381.86 449.1 374.14 437.37 367.45 427.41 360.18 419.53 353.57 412.21 347.83 404.67 341.34 397.71 335.62 389.33 331.27 379.3 326.51 369.26 323.97 358.59 323.6 348.34 324.63 334.59 338.17 321.39 349.45 325.17 357.58 329.67 366.78 336.16 376.56 343.15" stroke-dasharray="10 12" transform="rotate(84.84, 400, 400)" opacity="0.20"></path><path d="M378.72 358.61C386.58 361.94 394.51 364.44 402.24 366.16 410.11 365.95 418.01 366.02 425.67 367.01 433.69 367.43 441.62 369.6 449 373.74 456.62 377.85 463.46 384.01 468.74 392.2 473.66 400.39 476.09 409.9 476.14 420.23 475.51 430.68 472.57 441.95 467.76 453.15 462.5 463.88 455.73 473.54 448.01 480.61 440.17 485.45 431.64 486.28 422.91 482.3 414.17 475.68 406.03 465.95 398.69 454.89 391.23 443.93 384.36 433.1 378.24 423.18 371.78 414.3 365.84 405.99 360.69 398.13 355.09 390.69 350.23 382.98 346.54 375.01 340.84 354.08 349.47 340 357.77 344.38 363.78 348.08 370.86 353.09 378.72 358.61" stroke-dasharray="16 6" transform="rotate(88.88, 400, 400)" opacity="0.16"></path><path d="M383.7 374.08C395.64 378.2 408.77 381.9 420.93 386.17 433.68 388.25 445.73 395 453.46 407.57 460.42 420.14 460.27 436.48 454.44 451.61 447.64 464.62 436.38 471.56 423.26 466.84 410.14 456.38 397.71 439.22 387.59 422.41 376.79 406.86 367.42 392.22 361.82 380.16 355.22 364.38 367.38 362.16 383.7 374.08" stroke-dasharray="14 3" transform="rotate(92.92, 400, 400)" opacity="0.13"></path><path d="M390.84 389.54C398.93 393.02 408.14 397.33 416.64 402.1 425.29 405.65 433.24 411.54 438.19 420.08 442.8 428.61 443.05 438.26 439.73 446.05 436.04 452.61 429.22 455.19 420.53 451.38 411.84 445.04 403 434.34 395.52 423.13 387.8 411.92 381.08 401.01 377.09 392.82 372.49 382.57 379.93 382.1 390.84 389.54" stroke-dasharray="5 11" transform="rotate(96.96, 400, 400)" opacity="0.09"></path></g></svg>